<svg xmlns="http://www.w3.org/2000/svg" width="122.778" height="30.532" viewBox="0 0 122.778 30.532"><path d="M13369.37,629.074h11.94v2.47h-9.248v7.33h7.989v2.5h-7.989v11.178h-2.692Z" transform="translate(-13369.37 -626.486)" fill="#36c"/><path d="M13382.092,644.381v.222c0,3.071,1.963,5.067,4.686,5.067,1.9,0,3.421-1.013,4.592-3.071l1.839,1.234a7.067,7.067,0,0,1-6.556,3.864c-4.308,0-7.222-3.1-7.222-7.727,0-4.465,2.945-7.569,7.063-7.569,4.148,0,6.808,2.818,6.808,7.505v.475Zm4.307-5.858a4.144,4.144,0,0,0-4.307,3.9h8.614C13390.547,639.916,13388.963,638.523,13386.4,638.523Z" transform="translate(-13367.366 -625.026)" fill="#36c"/><path d="M13406.328,652.985h-2.343v-2.565a5.721,5.721,0,0,1-5.13,3.167c-4.055,0-6.777-3.009-6.777-7.632,0-4.75,2.723-7.632,6.684-7.632a5.461,5.461,0,0,1,5.161,3.167V626.916h2.405Zm-7.126-12.255c-2.818,0-4.559,1.8-4.559,4.941,0,3.546,1.773,5.573,4.592,5.573,2.912,0,4.75-1.9,4.75-5.256C13403.985,642.788,13402.055,640.729,13399.2,640.729Z" transform="translate(-13364.846 -626.916)" fill="#36c"/><path d="M13406.628,629.074h4.845v23.481h-4.845Z" transform="translate(-13361.946 -626.486)" fill="#54a800"/><path d="M13412.541,636.089h4.308v2.375a6.836,6.836,0,0,1,5.6-2.881c2.343,0,3.928.792,4.846,2.406a7.979,7.979,0,0,1,.633,3.928v9.341h-4.4v-7.505c0-2.882-.253-4.592-2.882-4.592a3.545,3.545,0,0,0-2.944,1.457,5.2,5.2,0,0,0-.76,3.357v7.283h-4.4Z" transform="translate(-13360.767 -625.189)" fill="#54a800"/><path d="M13425.242,636.005h5.1l2.565,7.885a16.647,16.647,0,0,1,.76,3.388,18.913,18.913,0,0,1,.791-3.546l2.6-7.727h5l-6.236,15.168h-4.4Z" transform="translate(-13358.236 -625.105)" fill="#54a800"/><path d="M13442.314,644.766a3.415,3.415,0,0,0,3.705,3.262,3.877,3.877,0,0,0,3.547-1.869l3.545,1.774a7.807,7.807,0,0,1-7.187,3.926c-5,0-7.98-3.262-7.98-8.107a7.792,7.792,0,0,1,8.012-8.169c4.783,0,7.824,3.008,7.824,8.043,0,.379-.033.759-.064,1.139Zm3.641-5.573a3.231,3.231,0,0,0-3.514,2.913h6.9A3.068,3.068,0,0,0,13445.955,639.193Z" transform="translate(-13355.705 -625.189)" fill="#54a800"/><path d="M13454.431,646.867a2.549,2.549,0,0,0,2.755,1.9c1.455,0,2.311-.57,2.311-1.488,0-1.361-1.234-1.456-3.261-2.216-3.1-1.172-4.751-2.28-4.751-4.561,0-2.849,2.407-4.971,6.365-4.971,2.755,0,4.813,1.172,5.7,3.135l-3.229,1.615a2.409,2.409,0,0,0-2.534-1.743c-1.329,0-2.184.6-2.184,1.457,0,1.235,1.33,1.552,3.545,2.28,3.1,1.013,4.593,2.28,4.593,4.687,0,2.913-2.407,4.909-6.46,4.909-3.2,0-5.511-1.266-6.239-3.262Z" transform="translate(-13353.097 -625.2)" fill="#54a800"/><path d="M13463.539,640.293h-2.12v-3.452h2.12v-5.034h4.4v5.034h2.122v3.452h-2.122V652.01h-4.4Z" transform="translate(-13351.029 -625.941)" fill="#54a800"/><path d="M13471.862,631.633a2.34,2.34,0,0,1,.67,1.657,2.286,2.286,0,0,1-.7,1.672,2.392,2.392,0,0,1-1.671.69,2.377,2.377,0,0,1-2.354-2.361,2.391,2.391,0,0,1,.345-1.228,2.288,2.288,0,0,1,2.01-1.138A2.345,2.345,0,0,1,13471.862,631.633Zm-3.063.24a2.007,2.007,0,0,0-.6,1.412,1.922,1.922,0,0,0,.568,1.379,1.958,1.958,0,0,0,1.4.6,2.027,2.027,0,0,0,1.4-.578,1.9,1.9,0,0,0,.578-1.359,1.944,1.944,0,0,0-.56-1.418,1.92,1.92,0,0,0-1.41-.592A1.888,1.888,0,0,0,13468.8,631.873Zm1.418.059c.748,0,1.118.254,1.118.754a.7.7,0,0,1-.571.7l.584,1.17h-.709l-.5-1.072h-.313v1.072h-.636v-2.62Zm-.391,1.165h.313c.363,0,.54-.11.54-.371s-.19-.391-.574-.391h-.279Z" transform="translate(-13349.754 -626.117)" fill="#54a800"/><rect width="119.329" height="1.678" transform="translate(0.002 28.854)" fill="#fa650c"/></svg>