<svg xmlns="http://www.w3.org/2000/svg" width="116.248" height="30.229" viewBox="0 0 116.248 30.229"><path d="M13505.2,645.941c.561,2.118,2.15,3.243,4.566,3.243,2.314,0,3.738-1.39,3.738-3.507,0-2.317-1.754-2.879-4.2-4.07-4.2-2.052-6.52-3.64-6.52-7.214,0-3.8,2.813-6.484,7.115-6.484,3.506,0,5.922,1.422,6.814,3.9l-3.01,1.555a3.957,3.957,0,0,0-3.508-2.15c-2.086,0-3.375,1.191-3.375,2.978,0,2.283,1.854,2.978,4.5,4.2,4.172,1.919,6.123,3.606,6.123,7.015,0,4.4-2.943,7.312-7.84,7.312-4.039,0-6.687-1.919-7.48-5.359Z" transform="translate(-13502.086 -626.718)" fill="#54a800"/><path d="M13516.2,628.35h3.837v20.217h8.6v3.441H13516.2Z" transform="translate(-13499.283 -626.63)" fill="#54a800"/><path d="M13547.938,639.986c.032.959.065,1.687.065,2.217,0,6.716-4.037,10.521-10.916,10.521-3.873,0-6.885-1.125-9.168-3.441a12.6,12.6,0,0,1-3.474-8.967,12.042,12.042,0,0,1,3.605-8.933,12.769,12.769,0,0,1,9.036-3.474,10.894,10.894,0,0,1,8.932,4.136l-2.812,2.117a7.552,7.552,0,0,0-6.055-2.746c-5.062,0-8.7,3.54-8.7,8.867,0,5.394,3.6,9,8.733,9,4.433,0,7.081-2.217,7.081-5.724v-.331h-5.692v-3.243Z" transform="translate(-13497.639 -626.718)" fill="#54a800"/><path d="M13547.746,645.941c.563,2.118,2.152,3.243,4.566,3.243,2.316,0,3.738-1.39,3.738-3.507,0-2.317-1.754-2.879-4.2-4.07-4.2-2.052-6.52-3.64-6.52-7.214,0-3.8,2.814-6.484,7.115-6.484,3.508,0,5.922,1.422,6.816,3.9l-3.012,1.555a3.957,3.957,0,0,0-3.506-2.15c-2.086,0-3.377,1.191-3.377,2.978,0,2.283,1.854,2.978,4.5,4.2,4.172,1.919,6.125,3.606,6.125,7.015,0,4.4-2.945,7.312-7.842,7.312-4.037,0-6.686-1.919-7.48-5.359Z" transform="translate(-13493.607 -626.718)" fill="#54a800"/><path d="M13570.7,650.711v-1.985a5.872,5.872,0,0,1-5.062,2.613c-4.269,0-6.983-3.077-6.983-8.3,0-4.93,2.846-8.173,6.885-8.173,2.513,0,4.332,1.092,5.161,3.045v-2.515h3.506v15.32Zm-4.1-12.739c-2.648,0-4.269,1.919-4.269,5.162,0,3.275,1.554,5.1,4.2,5.1,2.418,0,4.271-1.986,4.271-5.228C13570.8,639.791,13569.212,637.972,13566.6,637.972Z" transform="translate(-13490.818 -625.333)" fill="#36c"/><path d="M13575.408,640.052h-2.68v-3.077h2.68v-4.1c0-4.037,1.623-5.956,5.2-5.956a9.142,9.142,0,0,1,2.383.33v3.177a3.332,3.332,0,0,0-1.721-.5c-1.754,0-2.35,1.059-2.35,3.408v3.64h3.672v3.077h-3.672v12.242h-3.508Z" transform="translate(-13488.017 -626.916)" fill="#36c"/><path d="M13585.143,643.564c.164,2.878,1.786,4.566,4.334,4.566a4.918,4.918,0,0,0,4.8-3.011l2.944,1.655a8.2,8.2,0,0,1-7.676,4.566c-4.9,0-8.041-3.243-8.041-8.239,0-4.765,3.277-8.239,8.041-8.239,4.929,0,7.842,2.945,7.842,8.041v.662Zm4.467-5.724a3.954,3.954,0,0,0-4.234,3.375h8.37C13593.48,639,13592.025,637.84,13589.609,637.84Z" transform="translate(-13486.268 -625.333)" fill="#36c"/><path d="M13599.127,646.27a2.087,2.087,0,0,1,.608,1.493,2.064,2.064,0,0,1-.626,1.512,2.162,2.162,0,0,1-1.512.626,2.158,2.158,0,0,1-2.132-2.138,2.157,2.157,0,0,1,.642-1.523,2.052,2.052,0,0,1,1.49-.608A2.1,2.1,0,0,1,13599.127,646.27Zm-2.792.194a1.845,1.845,0,0,0-.55,1.3,1.825,1.825,0,0,0,1.788,1.819,1.869,1.869,0,0,0,1.319-.531,1.746,1.746,0,0,0,.53-1.258,1.815,1.815,0,0,0-1.819-1.848A1.735,1.735,0,0,0,13596.335,646.464Zm1.316.065c.671,0,1.009.23,1.009.65a.63.63,0,0,1-.53.661l.53,1.082h-.573l-.472-1h-.372v1h-.516v-2.393Zm-.408,1.076h.336c.379,0,.557-.107.557-.367s-.189-.384-.579-.384h-.313Z" transform="translate(-13483.487 -623.186)" fill="#36c"/><rect width="111.895" height="1.742" transform="translate(0 28.487)" fill="#fa650c"/></svg>