<?xml version="1.0" encoding="UTF-8"?>
<svg xmlns="http://www.w3.org/2000/svg" id="Logo_FedInvest" data-name="Logo FedInvest" width="230.401" height="57.296" viewBox="0 0 230.401 57.296">
  <path id="Path_4" data-name="Path 4" d="M13369.371,629.074h22.406v4.636h-17.355v13.755h14.992v4.695h-14.992v20.977h-5.051Z" transform="translate(-13369.371 -624.217)" fill="#36c"></path>
  <path id="Path_5" data-name="Path 5" d="M13384.424,651.376v.416c0,5.764,3.684,9.508,8.793,9.508,3.566,0,6.418-1.9,8.617-5.764l3.449,2.316a13.259,13.259,0,0,1-12.3,7.251c-8.084,0-13.553-5.824-13.553-14.5,0-8.379,5.527-14.2,13.254-14.2,7.785,0,12.777,5.289,12.777,14.084v.891Zm8.08-10.994a7.777,7.777,0,0,0-8.08,7.31h16.164C13400.289,643,13397.318,640.382,13392.5,640.382Z" transform="translate(-13356.791 -615.055)" fill="#36c"></path>
  <path id="Path_6" data-name="Path 6" d="M13418.82,675.835h-4.4v-4.814a10.737,10.737,0,0,1-9.627,5.944c-7.609,0-12.719-5.647-12.719-14.322,0-8.914,5.109-14.322,12.541-14.322a10.247,10.247,0,0,1,9.686,5.944V626.916h4.516Zm-13.373-23c-5.289,0-8.555,3.387-8.555,9.272,0,6.655,3.328,10.458,8.615,10.458,5.467,0,8.916-3.565,8.916-9.864C13414.424,656.7,13410.8,652.837,13405.447,652.837Z" transform="translate(-13340.974 -626.916)" fill="#36c"></path>
  <path id="Path_7" data-name="Path 7" d="M13406.627,629.074h9.092v44.063h-9.092Z" transform="translate(-13322.779 -624.217)" fill="#54a800"></path>
  <path id="Path_8" data-name="Path 8" d="M13412.541,636.533h8.084v4.456c2.971-3.684,6.3-5.406,10.516-5.406,4.4,0,7.371,1.485,9.094,4.515,1.127,2.082,1.188,4.4,1.188,7.37V665h-8.26V650.913c0-5.408-.475-8.617-5.406-8.617a6.657,6.657,0,0,0-5.527,2.734c-1.367,1.843-1.424,3.862-1.424,6.3V665h-8.264Z" transform="translate(-13315.384 -616.078)" fill="#54a800"></path>
  <path id="Path_9" data-name="Path 9" d="M13425.242,636.005h9.57l4.813,14.8a31.127,31.127,0,0,1,1.426,6.358,35.338,35.338,0,0,1,1.486-6.655l4.871-14.5h9.391l-11.705,28.464h-8.264Z" transform="translate(-13299.501 -615.55)" fill="#54a800"></path>
  <path id="Path_10" data-name="Path 10" d="M13446.145,652.815c.656,4.1,2.969,6.121,6.951,6.121a7.271,7.271,0,0,0,6.656-3.506l6.656,3.328c-3.09,4.992-7.426,7.368-13.492,7.368-9.387,0-14.973-6.121-14.973-15.214,0-8.8,6.123-15.33,15.035-15.33,8.975,0,14.682,5.644,14.682,15.094,0,.711-.062,1.425-.123,2.138Zm6.834-10.458c-3.682,0-5.941,1.841-6.6,5.466h12.955C13458.863,644.259,13456.723,642.357,13452.979,642.357Z" transform="translate(-13283.618 -616.078)" fill="#54a800"></path>
  <path id="Path_11" data-name="Path 11" d="M13457.4,656.8c.414,2.138,2.375,3.565,5.17,3.565,2.732,0,4.336-1.069,4.336-2.793,0-2.554-2.316-2.732-6.119-4.159-5.824-2.2-8.916-4.278-8.916-8.559,0-5.347,4.52-9.328,11.945-9.328,5.17,0,9.033,2.2,10.7,5.883l-6.059,3.031a4.521,4.521,0,0,0-4.756-3.27c-2.494,0-4.1,1.13-4.1,2.734,0,2.318,2.5,2.912,6.652,4.278,5.824,1.9,8.619,4.278,8.619,8.8,0,5.467-4.518,9.211-12.123,9.211-6,0-10.34-2.377-11.707-6.121Z" transform="translate(-13267.241 -616.144)" fill="#54a800"></path>
  <path id="Path_12" data-name="Path 12" d="M13465.4,647.732h-3.98v-6.477h3.98v-9.448h8.264v9.448h3.982v6.477h-3.982v21.987h-8.264Z" transform="translate(-13254.266 -620.8)" fill="#54a800"></path>
  <path id="Path_13" data-name="Path 13" d="M13475.413,632.254a4.389,4.389,0,0,1,1.258,3.11,4.294,4.294,0,0,1-1.307,3.137,4.5,4.5,0,0,1-3.137,1.294,4.464,4.464,0,0,1-4.418-4.431,4.492,4.492,0,0,1,.646-2.3,4.3,4.3,0,0,1,3.771-2.136A4.4,4.4,0,0,1,13475.413,632.254Zm-5.748.45a3.764,3.764,0,0,0-1.123,2.649,3.608,3.608,0,0,0,1.064,2.588,3.679,3.679,0,0,0,2.621,1.121,3.805,3.805,0,0,0,2.625-1.085,3.552,3.552,0,0,0,1.084-2.55,3.645,3.645,0,0,0-1.051-2.66,3.6,3.6,0,0,0-2.645-1.112A3.54,3.54,0,0,0,13469.665,632.7Zm2.66.11c1.4,0,2.1.477,2.1,1.416a1.311,1.311,0,0,1-1.07,1.305l1.1,2.2h-1.33l-.939-2.012h-.586v2.012h-1.193v-4.917Zm-.732,2.185h.586c.684,0,1.016-.207,1.016-.7,0-.513-.357-.734-1.078-.734h-.523Z" transform="translate(-13246.27 -621.904)" fill="#54a800"></path>
  <rect id="Rectangle_5" data-name="Rectangle 5" width="223.929" height="3.148" transform="translate(0.004 54.147)" fill="#fa650c"></rect>
</svg>
