<?xml version="1.0" encoding="UTF-8"?>
<svg xmlns="http://www.w3.org/2000/svg" viewBox="0 0 72 72">
  <defs>
    <style>.cls-1{fill:#fff;}.cls-2{fill:#7f4e00;}</style>
  </defs>
  <g id="Layer_2" data-name="Layer 2">
    <g id="Layer_1-2" data-name="Layer 1">
      <circle class="cls-1" cx="36" cy="36" r="36"></circle>
      <path class="cls-2" d="M53,32.21l-8.56,8.55a1.65,1.65,0,0,1-2.33,0L40.59,39.2a1.64,1.64,0,0,1,0-2.33l.39-.39-2.73-2.72-5.57,5.57.39.39a2.2,2.2,0,0,1,0,3.11l-7.88,7.88a2.2,2.2,0,0,1-3.11,0L19,47.6a2.2,2.2,0,0,1,0-3.11l7.88-7.88a2.2,2.2,0,0,1,3.11,0l.39.39,5.57-5.57L33.2,28.71l-.39.38a1.64,1.64,0,0,1-2.33,0l-1.56-1.55a1.65,1.65,0,0,1,0-2.33l8.56-8.56a1.65,1.65,0,0,1,2.33,0l1.55,1.56a1.64,1.64,0,0,1,0,2.33l-.39.39,7.78,7.78.39-.39a1.64,1.64,0,0,1,2.33,0L53,29.87A1.67,1.67,0,0,1,53,32.21Z"></path>
    </g>
  </g>
</svg>
