<?xml version="1.0" encoding="UTF-8"?>
<svg xmlns="http://www.w3.org/2000/svg" viewBox="0 0 72 72">
  <defs>
    <style>.cls-1{fill:#fff;}.cls-2{fill:#0379ca;}</style>
  </defs>
  <g id="Layer_2" data-name="Layer 2">
    <g id="Layer_1-2" data-name="Layer 1">
<path class="cls-2" d="M53,36A17,17,0,1,1,36,19,17,17,0,0,1,53,36ZM39.85,42.32A.83.83,0,0,0,39,41.5H38.2V34.63a.83.83,0,0,0-.83-.83H33a.83.83,0,0,0-.83.83v1.64a.83.83,0,0,0,.83.83h.82v4.4H33a.83.83,0,0,0-.83.82V44a.83.83,0,0,0,.83.83h6a.83.83,0,0,0,.83-.83ZM33.11,29.4A2.89,2.89,0,1,0,36,26.52,2.89,2.89,0,0,0,33.11,29.4Z"></path>
    </g>
  </g>
</svg>
