<?xml version="1.0" encoding="UTF-8"?>
<svg xmlns="http://www.w3.org/2000/svg" viewBox="0 0 72 72">
  <defs>
    <style>.cls-1{fill:#fff;}.cls-2{fill:#016699;}</style>
  </defs>
  <g id="Layer_2" data-name="Layer 2">
    <g id="Layer_1-2" data-name="Layer 1">
      <circle class="cls-1" cx="36" cy="36" r="36"></circle>
      <path class="cls-2" d="M50.75,40.09a6.58,6.58,0,0,1-1.19,4.61c-.06,3.84-2.46,6.55-7.76,6.55H40.27c-7.06,0-9.16-2.68-12.22-2.75a2.19,2.19,0,0,1-2.13,1.65H21.53a2.19,2.19,0,0,1-2.2-2.2V31.46a2.19,2.19,0,0,1,2.2-2.2h6.78c1.32-1.17,3.16-4.17,4.73-5.73.94-.94.7-7.47,4.93-7.47,4,0,6.55,2.2,6.55,7.2a8.72,8.72,0,0,1-.61,3.2h2.51a6,6,0,0,1,5.89,5.88,6.53,6.53,0,0,1-.94,3.43A6.35,6.35,0,0,1,50.75,40.09Zm-27,4a1.65,1.65,0,1,0,1.65,1.65A1.64,1.64,0,0,0,23.72,44.1ZM47.49,35c.64,0,1.53-1.3,1.53-2.6a2.69,2.69,0,0,0-2.6-2.6H39.27c0-2.6,1.95-3.81,1.95-6.5,0-1.63,0-3.9-3.25-3.9-1.3,1.3-.65,4.55-2.6,6.5s-4.55,6.7-6.5,6.7h-.75V45.35c3.69,0,6.88,2.6,11.8,2.6h2.6c2.44,0,4.18-1.18,3.65-4.53a3.06,3.06,0,0,0,1-4A3.3,3.3,0,0,0,47.49,35Z"></path>
    </g>
  </g>
</svg>
