<?xml version="1.0" encoding="UTF-8"?>
<!-- Generator: Adobe Illustrator 24.2.3, SVG Export Plug-In . SVG Version: 6.00 Build 0)  -->
<svg xmlns="http://www.w3.org/2000/svg" xmlns:xlink="http://www.w3.org/1999/xlink" version="1.1" id="Layer_1" x="0px" y="0px" viewBox="0 0 512 512" style="enable-background:new 0 0 512 512;" xml:space="preserve">
<style type="text/css">
	.st0{fill:#777777;}
</style>
<path class="st0" d="M5.4,103.8c138.5-138.5,362.9-138.3,501.3,0c6.1,6.1,7.1,15.5,2.6,22.7L466,195.6c-4.7,7.5-14.1,10.6-22.4,7.3  l-86.4-34.6c-7.6-3-12.2-10.7-11.4-18.8l6-59.5c-62.1-22.5-130.6-22-191.5,0l6,59.5c0.8,8.1-3.8,15.8-11.4,18.8l-86.4,34.6  c-8.2,3.3-17.7,0.2-22.4-7.3L2.8,126.5C-1.7,119.3-0.7,109.9,5.4,103.8z M96,308v-40c0-6.6-5.4-12-12-12H44c-6.6,0-12,5.4-12,12v40  c0,6.6,5.4,12,12,12h40C90.6,320,96,314.6,96,308z M192,308v-40c0-6.6-5.4-12-12-12h-40c-6.6,0-12,5.4-12,12v40c0,6.6,5.4,12,12,12  h40C186.6,320,192,314.6,192,308z M288,308v-40c0-6.6-5.4-12-12-12h-40c-6.6,0-12,5.4-12,12v40c0,6.6,5.4,12,12,12h40  C282.6,320,288,314.6,288,308z M384,308v-40c0-6.6-5.4-12-12-12h-40c-6.6,0-12,5.4-12,12v40c0,6.6,5.4,12,12,12h40  C378.6,320,384,314.6,384,308z M480,308v-40c0-6.6-5.4-12-12-12h-40c-6.6,0-12,5.4-12,12v40c0,6.6,5.4,12,12,12h40  C474.6,320,480,314.6,480,308z M144,404v-40c0-6.6-5.4-12-12-12H92c-6.6,0-12,5.4-12,12v40c0,6.6,5.4,12,12,12h40  C138.6,416,144,410.6,144,404z M240,404v-40c0-6.6-5.4-12-12-12h-40c-6.6,0-12,5.4-12,12v40c0,6.6,5.4,12,12,12h40  C234.6,416,240,410.6,240,404z M336,404v-40c0-6.6-5.4-12-12-12h-40c-6.6,0-12,5.4-12,12v40c0,6.6,5.4,12,12,12h40  C330.6,416,336,410.6,336,404z M432,404v-40c0-6.6-5.4-12-12-12h-40c-6.6,0-12,5.4-12,12v40c0,6.6,5.4,12,12,12h40  C426.6,416,432,410.6,432,404z M96,500v-40c0-6.6-5.4-12-12-12H44c-6.6,0-12,5.4-12,12v40c0,6.6,5.4,12,12,12h40  C90.6,512,96,506.6,96,500z M384,500v-40c0-6.6-5.4-12-12-12H140c-6.6,0-12,5.4-12,12v40c0,6.6,5.4,12,12,12h232  C378.6,512,384,506.6,384,500z M480,500v-40c0-6.6-5.4-12-12-12h-40c-6.6,0-12,5.4-12,12v40c0,6.6,5.4,12,12,12h40  C474.6,512,480,506.6,480,500z"></path>
</svg>
