<?xml version="1.0" encoding="UTF-8"?>
<svg xmlns="http://www.w3.org/2000/svg" viewBox="0 0 72 72">
  <defs>
    <style>.cls-1{fill:#fff;}.cls-2{fill:#0379ca;}.cls-3{fill:#029943;}</style>
  </defs>
  <g id="Layer_2" data-name="Layer 2">
    <g id="Layer_1-2" data-name="Layer 1">
      <circle class="cls-1" cx="36" cy="36" r="36"></circle>
      <path class="cls-2" d="M18,28.5V24.66a.83.83,0,0,1,.82-.83h7.62a1,1,0,0,1,.6.26l4.85,5.2-3.67,3.92-3.62-3.88H18.86A.83.83,0,0,1,18,28.5Zm34.7,15.74-5.5,5.5a1.65,1.65,0,0,1-2.81-1.17V45.82h-4a.89.89,0,0,1-.6-.26l-4.85-5.19,3.66-3.93,3.63,3.88h2.2V37.58a1.65,1.65,0,0,1,2.81-1.17l5.5,5.5A1.64,1.64,0,0,1,52.74,44.24Z"></path>
      <path class="cls-3" d="M42.23,29.33,27.08,45.56a.81.81,0,0,1-.6.26H18.86A.82.82,0,0,1,18,45V41.15a.83.83,0,0,1,.82-.83h5.78L39.79,24.09a.94.94,0,0,1,.6-.26h4V21.08a1.64,1.64,0,0,1,2.81-1.16l5.5,5.49a1.65,1.65,0,0,1,0,2.34l-5.5,5.49a1.65,1.65,0,0,1-2.81-1.16V29.33Z"></path>
    </g>
  </g>
</svg>
