<?xml version="1.0" encoding="UTF-8"?>
<svg xmlns="http://www.w3.org/2000/svg" viewBox="0 0 72 72">
  <defs>
    <style>.cls-1{fill:#fff;}.cls-2{fill:#016699;}</style>
  </defs>
  <g id="Layer_2" data-name="Layer 2">
    <g id="Layer_1-2" data-name="Layer 1">
      <circle class="cls-1" cx="36" cy="36" r="36"></circle>
      <path class="cls-2" d="M53.23,24.93V44.72a3.3,3.3,0,0,1-3.3,3.3H21.34a3.3,3.3,0,0,1-3.3-3.3V24.93a3.3,3.3,0,0,1,3.3-3.3H49.93A3.3,3.3,0,0,1,53.23,24.93Zm-31.89,0v2.8c1.54,1.26,4,3.21,9.25,7.32,1.15.91,3.45,3.1,5,3.07s3.89-2.16,5-3.07c5.25-4.11,7.71-6.06,9.25-7.32v-2.8ZM49.93,44.72V32c-1.58,1.25-3.81,3-7.22,5.68-1.54,1.22-4.14,3.79-7.08,3.77s-5.58-2.59-7.08-3.77C25.15,35,22.91,33.22,21.34,32V44.72Z"></path>
    </g>
  </g>
</svg>
