<?xml version="1.0" encoding="UTF-8"?>
<svg xmlns="http://www.w3.org/2000/svg" viewBox="0 0 72 72">
  <defs>
    <style>.cls-1{fill:#fff;}.cls-2{fill:#777;}</style>
  </defs>
  <g id="Layer_2" data-name="Layer 2">
    <g id="Layer_1-2" data-name="Layer 1">
      <circle class="cls-1" cx="36" cy="36" r="36"></circle>
      <path class="cls-2" d="M56.21,24.22V47.31A1.65,1.65,0,0,1,54.56,49H20.48a3.85,3.85,0,0,1-3.85-3.85V26.42a1.65,1.65,0,0,1,1.65-1.65h2.93a3.32,3.32,0,0,1,3.12-2.2H54.56A1.65,1.65,0,0,1,56.21,24.22ZM20.48,45.66a.55.55,0,0,0,.55-.55v-17h-1.1v17A.55.55,0,0,0,20.48,45.66ZM52.92,25.87H24.33V45.11a4.91,4.91,0,0,1,0,.55H52.92ZM27.62,36.59V30a.83.83,0,0,1,.83-.82h9.34a.83.83,0,0,1,.83.82v6.6a.83.83,0,0,1-.83.82H28.45A.83.83,0,0,1,27.62,36.59Zm0,3.3a.83.83,0,0,1,.83-.83h9.34a.83.83,0,0,1,.83.83v1.65a.83.83,0,0,1-.83.82H28.45a.83.83,0,0,1-.83-.82Zm2.75-5.22h5.5V31.92h-5.5ZM40.82,30a.82.82,0,0,1,.82-.82h7.15a.83.83,0,0,1,.83.82v1.65a.83.83,0,0,1-.83.83H41.64a.83.83,0,0,1-.82-.83Zm0,4.95a.82.82,0,0,1,.82-.82h7.15a.82.82,0,0,1,.83.82v1.65a.83.83,0,0,1-.83.82H41.64a.82.82,0,0,1-.82-.82Zm0,5a.83.83,0,0,1,.82-.83h7.15a.83.83,0,0,1,.83.83v1.65a.83.83,0,0,1-.83.82H41.64a.82.82,0,0,1-.82-.82Z"></path>
    </g>
  </g>
</svg>
