<?xml version="1.0" encoding="UTF-8"?>
<svg xmlns="http://www.w3.org/2000/svg" viewBox="0 0 72 72">
  <defs>
    <style>.cls-1{fill:#fff;}.cls-2{fill:#016699;}</style>
  </defs>
  <g id="Layer_2" data-name="Layer 2">
    <g id="Layer_1-2" data-name="Layer 1">
      <circle class="cls-1" cx="36" cy="36" r="36"></circle>
      <path class="cls-2" d="M53.23,44.82v1.1a1.1,1.1,0,0,1-1.1,1.1H20.24a2.19,2.19,0,0,1-2.2-2.2V21.73a1.1,1.1,0,0,1,1.1-1.1h1.1a1.1,1.1,0,0,1,1.1,1.1v22H52.13A1.1,1.1,0,0,1,53.23,44.82ZM24.64,39.54V34.71a1,1,0,0,1,.88-.88h1.54a1,1,0,0,1,.88.88v4.83a1,1,0,0,1-.88.88H25.52A1,1,0,0,1,24.64,39.54Zm6.59,0V25.91a1,1,0,0,1,.88-.88h1.54a1,1,0,0,1,.88.88V39.54a1,1,0,0,1-.88.88H32.11A1,1,0,0,1,31.23,39.54Zm6.6,0V30.31a1,1,0,0,1,.88-.88h1.54a1,1,0,0,1,.88.88v9.23a1,1,0,0,1-.88.88H38.71A1,1,0,0,1,37.83,39.54Zm6.6,0V23.71a1,1,0,0,1,.88-.88h1.54a1,1,0,0,1,.88.88V39.54a1,1,0,0,1-.88.88H45.31A1,1,0,0,1,44.43,39.54Z"></path>
    </g>
  </g>
</svg>
