<?xml version="1.0" encoding="UTF-8"?>
<!-- Generator: Adobe Illustrator 24.2.3, SVG Export Plug-In . SVG Version: 6.00 Build 0)  -->
<svg xmlns="http://www.w3.org/2000/svg" xmlns:xlink="http://www.w3.org/1999/xlink" version="1.1" id="Layer_1" x="0px" y="0px" viewBox="0 0 72 72" style="enable-background:new 0 0 72 72;" xml:space="preserve">
<style type="text/css">
	.st0{fill:#FFFFFF;}
	.st1{fill:#FFD800;}
</style>
<g id="Layer_2_1_">
	<g id="Layer_1-2">
		<circle class="st0" cx="36" cy="36" r="36"></circle>
		<path class="st1" d="M44.4,35.7c0,3-5.9,5.5-13.2,5.5S18,38.8,18,35.7s5.9-5.5,13.2-5.5S44.4,32.7,44.4,35.7z M31.2,43.4    c5.2,0,10.4-1.2,13.2-3.5v3.5c0,2.4-5.9,4.4-13.2,4.4S18,45.8,18,43.4v-3.5C20.9,42.2,26.1,43.4,31.2,43.4z M31.2,50    c5.2,0,10.4-0.9,13.2-2.9V50c0,2.4-5.9,4.4-13.2,4.4S18,52.5,18,50v-2.9C20.9,49.1,26.1,50,31.2,50L31.2,50z M26.8,23.6    c0-2.4,5.9-4.4,13.2-4.4s13.2,2,13.2,4.4S47.3,28,40,28S26.8,26.1,26.8,23.6z M42.2,30.2c4.4-0.2,8.6-1.1,11-2.9v2.9    c0,1.7-2.8,3.1-6.9,3.9C45.4,32.3,44,30.9,42.2,30.2z M46.6,36.3c2.3-0.3,4.6-1.1,6.6-2.4v2.9c0,1.6-2.7,3-6.6,3.8V36.3z"></path>
	</g>
</g>
</svg>
