<?xml version="1.0" encoding="UTF-8"?>
<svg xmlns="http://www.w3.org/2000/svg" viewBox="0 0 72 72">
  <defs>
    <style>.cls-1{fill:#fff;}.cls-2{fill:#e12319;}</style>
  </defs>
  <g id="Layer_2" data-name="Layer 2">
    <g id="Layer_1-2" data-name="Layer 1">
      <circle class="cls-1" cx="36" cy="36" r="36"></circle>
      <path class="cls-2" d="M19,36A17,17,0,1,1,36,53,17,17,0,0,1,19,36Zm5.27,7.11,3.67-3.67a8.83,8.83,0,0,1,0-6.88l-3.67-3.67A13.76,13.76,0,0,0,24.23,43.11Zm4.66-18.88,3.67,3.67a8.81,8.81,0,0,1,6.87,0l3.68-3.67A13.76,13.76,0,0,0,28.89,24.23ZM43.11,47.77,39.43,44.1a8.81,8.81,0,0,1-6.87,0l-3.67,3.67A13.76,13.76,0,0,0,43.11,47.77ZM36,30.5A5.5,5.5,0,1,0,41.5,36,5.51,5.51,0,0,0,36,30.5Zm11.77-1.61L44.1,32.56a8.83,8.83,0,0,1,0,6.88l3.67,3.67A13.8,13.8,0,0,0,47.77,28.89Z"></path>
    </g>
  </g>
</svg>
