<?xml version="1.0" encoding="UTF-8"?>
<svg xmlns="http://www.w3.org/2000/svg" viewBox="0 0 72 72">
  <defs>
    <style>.cls-1{fill:#fff;}.cls-2{fill:#777;}</style>
  </defs>
  <g id="Layer_2" data-name="Layer 2">
    <g id="Layer_1-2" data-name="Layer 1">
      <circle class="cls-1" cx="36" cy="36" r="36"></circle>
      <path class="cls-2" d="M40.77,29.17h9.35V51.71a1.65,1.65,0,0,1-1.65,1.65H25.38a1.65,1.65,0,0,1-1.65-1.65V19.82a1.65,1.65,0,0,1,1.65-1.65H39.12v9.35A1.66,1.66,0,0,0,40.77,29.17Zm-12.65-5a.55.55,0,0,0,.55.55h5.5a.55.55,0,0,0,.55-.55v-1.1a.55.55,0,0,0-.55-.55h-5.5a.55.55,0,0,0-.55.55Zm0,4.4a.55.55,0,0,0,.55.55h5.5a.55.55,0,0,0,.55-.55v-1.1a.54.54,0,0,0-.55-.55h-5.5a.55.55,0,0,0-.55.55Zm16.5,4.95H29.22a1.1,1.1,0,0,0-1.1,1.1v6.59a1.1,1.1,0,0,0,1.1,1.1h15.4a1.1,1.1,0,0,0,1.1-1.1V34.67A1.1,1.1,0,0,0,44.62,33.57Zm-1.1,6.59H30.32v-4.4h13.2Zm2.2,7.15a.55.55,0,0,0-.55-.55h-5.5a.55.55,0,0,0-.55.55v1.1a.55.55,0,0,0,.55.55h5.5a.55.55,0,0,0,.55-.55Zm4.4-20.76V27h-8.8v-8.8h.42a1.65,1.65,0,0,1,1.17.48l6.72,6.74A1.65,1.65,0,0,1,50.12,26.55Z"></path>
    </g>
  </g>
</svg>
