<?xml version="1.0" encoding="UTF-8"?>
<svg xmlns="http://www.w3.org/2000/svg" viewBox="0 0 72 72">
  <defs>
    <style>.cls-1{fill:#fff;}.cls-2{fill:#777;}</style>
  </defs>
  <g id="Layer_2" data-name="Layer 2">
    <g id="Layer_1-2" data-name="Layer 1">
      <circle class="cls-1" cx="36" cy="36" r="36"></circle>
      <path class="cls-2" d="M53.51,23.53v2.54a1.1,1.1,0,0,1-1.1,1.1h-33a1.1,1.1,0,0,1-1.1-1.1V23.53a1.18,1.18,0,0,1,.72-1l16.1-6.19a2.62,2.62,0,0,1,.78-.14,2.55,2.55,0,0,1,.77.14L52.8,22.5A1.09,1.09,0,0,1,53.51,23.53Zm0,24.53v2.2a1.1,1.1,0,0,1-1.1,1.1h-33a1.1,1.1,0,0,1-1.1-1.1v-2.2a1.1,1.1,0,0,1,1.1-1.1h33A1.1,1.1,0,0,1,53.51,48.06ZM27.12,29.37v11h6.6v-11h4.4v11h6.59v-11h4.4v11h1.1a1.1,1.1,0,0,1,1.1,1.1v3.3H20.52v-3.3a1.1,1.1,0,0,1,1.1-1.1h1.1v-11Z"></path>
    </g>
  </g>
</svg>
