<?xml version="1.0" encoding="UTF-8"?>
<svg xmlns="http://www.w3.org/2000/svg" viewBox="0 0 72 72">
  <defs>
    <style>.cls-1{fill:#fff;}.cls-2{fill:#7f4e00;}</style>
  </defs>
  <g id="Layer_2" data-name="Layer 2">
    <g id="Layer_1-2" data-name="Layer 1">
      <circle class="cls-1" cx="36" cy="36" r="36"></circle>
      <path class="cls-2" d="M50.7,42.19a15.23,15.23,0,0,0,0,5.13,1.68,1.68,0,0,1,.61,1.29v1.1a1.65,1.65,0,0,1-1.65,1.65H27.12a6.61,6.61,0,0,1-6.6-6.6v-22a6.61,6.61,0,0,1,6.6-6.6H49.66a1.65,1.65,0,0,1,1.65,1.65V40.91A1.64,1.64,0,0,1,50.7,42.19Zm-4,.37H27.12a2.2,2.2,0,0,0,0,4.4H46.73A24.87,24.87,0,0,1,46.73,42.56ZM29.32,26.75a.41.41,0,0,0,.41.42H44.3a.41.41,0,0,0,.41-.42V25.38A.41.41,0,0,0,44.3,25H29.73a.41.41,0,0,0-.41.41Zm0,4.4a.41.41,0,0,0,.41.42H44.3a.41.41,0,0,0,.41-.42V29.78a.41.41,0,0,0-.41-.41H29.73a.41.41,0,0,0-.41.41Z"></path>
    </g>
  </g>
</svg>
