<?xml version="1.0" encoding="UTF-8"?>
<!-- Generator: Adobe Illustrator 24.2.3, SVG Export Plug-In . SVG Version: 6.00 Build 0)  -->
<svg xmlns="http://www.w3.org/2000/svg" xmlns:xlink="http://www.w3.org/1999/xlink" version="1.1" id="Layer_1" x="0px" y="0px" viewBox="0 0 72 72" style="enable-background:new 0 0 72 72;" xml:space="preserve">
<style type="text/css">
	.st0{fill:#FFFFFF;}
	.st1{fill:#E07400;}
</style>
<g id="Layer_2_1_">
	<g id="Layer_1-2">
		<circle class="st0" cx="36" cy="36" r="36"></circle>
		<path class="st1" d="M58,22.6V49c0,1.2-1,2.2-2.2,2.2H16.2c-1.2,0-2.2-1-2.2-2.2l0,0V22.6c0-1.2,1-2.2,2.2-2.2h39.6    C57,20.4,58,21.4,58,22.6z M29,37.6c0-1.4-0.9-2.6-2.2-3l-3.1-0.9c-0.4-0.1-0.6-0.5-0.6-0.9c0-0.5,0.3-0.9,0.8-0.9c0,0,0,0,0,0    h1.9c0.3,0,0.6,0.1,0.9,0.3c0.2,0.1,0.5,0.1,0.7,0l0.8-0.8c0.2-0.2,0.3-0.5,0.1-0.8c0,0,0,0-0.1-0.1c-0.6-0.5-1.4-0.7-2.2-0.8    v-1.1c0-0.3-0.2-0.5-0.5-0.5h-1.1c-0.3,0-0.5,0.2-0.5,0.5v1.1c-1.7,0.1-3,1.6-2.9,3.3c0.1,1.3,0.9,2.4,2.1,2.8l3.1,0.9    c0.4,0.1,0.6,0.5,0.6,0.9c0,0.5-0.3,0.9-0.8,0.9c0,0,0,0,0,0h-1.9c-0.3,0-0.6-0.1-0.9-0.2c-0.2-0.1-0.5-0.1-0.7,0l-0.8,0.8    c-0.2,0.2-0.3,0.5-0.1,0.8c0,0,0,0,0.1,0.1c0.6,0.5,1.4,0.7,2.1,0.8v1.1c0,0.3,0.2,0.5,0.5,0.5h1.1c0.3,0,0.5-0.2,0.5-0.5v-1.1    C27.7,40.6,29,39.3,29,37.6L29,37.6z M53.6,31.9c0-0.3-0.2-0.5-0.5-0.5c0,0,0,0,0,0H34.3c-0.3,0-0.5,0.2-0.5,0.5c0,0,0,0,0,0V33    c0,0.3,0.2,0.5,0.5,0.5H53c0.3,0,0.5-0.2,0.5-0.5L53.6,31.9z M42.6,38.5c0-0.3-0.2-0.5-0.5-0.5h-7.7c-0.3,0-0.5,0.2-0.5,0.5v1.1    c0,0.3,0.2,0.5,0.5,0.5c0,0,0,0,0,0H42c0.3,0,0.5-0.2,0.5-0.5V38.5z M53.6,38.5c0-0.3-0.3-0.5-0.6-0.5h-5.5    c-0.3,0-0.5,0.2-0.5,0.5v1.1c0,0.3,0.2,0.5,0.5,0.5H53c0.3,0,0.5-0.2,0.5-0.5c0,0,0,0,0,0L53.6,38.5z"></path>
	</g>
</g>
</svg>
