<?xml version="1.0" encoding="UTF-8"?>
<svg xmlns="http://www.w3.org/2000/svg" viewBox="0 0 72 72">
  <defs>
    <style>.cls-1{fill:#fff;}.cls-2{fill:#0379ca;}</style>
  </defs>
  <g id="Layer_2" data-name="Layer 2">
    <g id="Layer_1-2" data-name="Layer 1">
      <circle class="cls-1" cx="36" cy="36" r="36"></circle>
      <path class="cls-2" d="M51.2,21.71V50.29a3.38,3.38,0,0,1-3.3,3.3H23.71a3.38,3.38,0,0,1-3.3-3.3V21.71a3.38,3.38,0,0,1,3.3-3.3H47.9A3.38,3.38,0,0,1,51.2,21.71Zm-4.4,2a1,1,0,0,0-.88-.88H25.69a1,1,0,0,0-.88.88v7a1,1,0,0,0,.88.88H45.92a1,1,0,0,0,.88-.88ZM29.21,36.88a1,1,0,0,0-.88-.88H25.69a1,1,0,0,0-.88.88v2.64a1,1,0,0,0,.88.88h2.64a1,1,0,0,0,.88-.88Zm0,8.8a1,1,0,0,0-.88-.88H25.69a1,1,0,0,0-.88.88v2.64a1,1,0,0,0,.88.88h2.64a1,1,0,0,0,.88-.88Zm8.8-8.8a1,1,0,0,0-.88-.88H34.49a1,1,0,0,0-.88.88v2.64a1,1,0,0,0,.88.88h2.64a1,1,0,0,0,.88-.88Zm0,8.8a1,1,0,0,0-.88-.88H34.49a1,1,0,0,0-.88.88v2.64a1,1,0,0,0,.88.88h2.64a1,1,0,0,0,.88-.88Zm8.79-8.8a1,1,0,0,0-.88-.88H43.29a1,1,0,0,0-.88.88V48.32a1,1,0,0,0,.88.88h2.63a1,1,0,0,0,.88-.88Z"></path>
    </g>
  </g>
</svg>
